<svg xmlns="http://www.w3.org/2000/svg" xmlns:xlink="http://www.w3.org/1999/xlink" viewBox="0 0 26 26" fill="#36509b">
  <path d="M7 1C4.789063 1 3 2.789063 3 5C3 7.210938 4.789063 9 7 9C9.210938 9 11 7.210938 11 5C11 2.789063 9.210938 1 7 1 Z M 19 1C16.789063 1 15 2.789063 15 5C15 7.210938 16.789063 9 19 9C21.210938 9 23 7.210938 23 5C23 2.789063 21.210938 1 19 1 Z M 7 10C5.601563 10 4.40625 10.289063 3.40625 10.6875C1.304688 11.488281 0 13.488281 0 15.6875L0 25L8 25L8 24C8 22.699219 8.800781 21.507813 10 20.90625C11 20.40625 12.199219 19.90625 13 19.90625C13.800781 19.90625 15 20.414063 16 20.8125C17.199219 21.414063 18 22.605469 18 23.90625L18 24.90625L26 24.90625L26 15.59375C26 13.492188 24.59375 11.488281 22.59375 10.6875C21.59375 10.289063 20.398438 10 19 10C16.101563 10 14.101563 11.199219 13 12C11.898438 11.101563 9.898438 10 7 10 Z M 13 13C14.699219 13 16 14.300781 16 16C16 17.699219 14.699219 19 13 19C11.300781 19 10 17.699219 10 16C10 14.300781 11.300781 13 13 13Z" fill="#36509b" />
</svg>
