<svg xmlns="http://www.w3.org/2000/svg" xmlns:xlink="http://www.w3.org/1999/xlink" viewBox="0 0 26 26" fill="#36509b">
  <path fill="#36509b" d="M13 0.1875C11.894531 0.1875 11 1.03125 11 2L15 2C15 1.09375 14.105469 0.1875 13 0.1875 Z M 4.96875 0.5C3.914063 0.582031 2.867188 1.070313 2 1.9375C0.269531 3.671875 -0.078125 6.175781 1.65625 7.90625L7.9375 1.625C7.070313 0.757813 6.023438 0.417969 4.96875 0.5 Z M 20.25 0.5C19.46875 0.605469 18.710938 0.976563 18.0625 1.625L24.34375 7.90625C26.078125 6.175781 25.730469 3.671875 24 1.9375C22.917969 0.855469 21.550781 0.324219 20.25 0.5 Z M 13 3.1875C7.027344 3.1875 2.1875 8.027344 2.1875 14C2.1875 17.582031 3.945313 20.75 6.625 22.71875L5.84375 25.03125C5.769531 25.238281 5.796875 25.675781 6.25 25.875C6.707031 26.074219 7.054688 25.792969 7.15625 25.59375L8.1875 23.6875C9.636719 24.40625 11.273438 24.8125 13 24.8125C14.726563 24.8125 16.363281 24.40625 17.8125 23.6875L18.84375 25.59375C18.945313 25.792969 19.292969 26.074219 19.75 25.875C20.203125 25.675781 20.230469 25.238281 20.15625 25.03125L19.375 22.71875C22.058594 20.75 23.8125 17.582031 23.8125 14C23.8125 8.027344 18.972656 3.1875 13 3.1875 Z M 12 5.8125L12 6.5C12 6.84375 12.179688 7.160156 12.46875 7.34375C12.390625 7.464844 12.351563 7.589844 12.34375 7.6875L12.09375 12.71875C11.695313 13.003906 11.4375 13.472656 11.4375 14C11.4375 14.867188 12.132813 15.5625 13 15.5625C13.054688 15.5625 13.101563 15.535156 13.15625 15.53125L16.21875 18.25C16.390625 18.402344 16.824219 18.519531 17.1875 18.15625C17.550781 17.792969 17.429688 17.363281 17.28125 17.1875L14.5625 14.0625C14.5625 14.042969 14.5625 14.019531 14.5625 14C14.5625 13.445313 14.277344 12.96875 13.84375 12.6875L13.65625 7.6875C13.652344 7.589844 13.605469 7.460938 13.53125 7.34375C13.820313 7.160156 14 6.84375 14 6.5L14 5.8125C17.707031 6.261719 20.679688 9.1875 21.1875 12.875L20.5 12.875C20.457031 12.871094 20.417969 12.871094 20.375 12.875C19.753906 12.910156 19.277344 13.441406 19.3125 14.0625C19.347656 14.683594 19.878906 15.160156 20.5 15.125L21.1875 15.125C20.6875 18.773438 17.773438 21.6875 14.125 22.1875L14.125 21.5C14.132813 21.152344 13.984375 20.820313 13.714844 20.601563C13.445313 20.378906 13.089844 20.296875 12.75 20.375C12.226563 20.492188 11.859375 20.964844 11.875 21.5L11.875 22.1875C8.226563 21.6875 5.3125 18.773438 4.8125 15.125L5.5 15.125C6.121094 15.125 6.625 14.621094 6.625 14C6.625 13.378906 6.121094 12.875 5.5 12.875L4.8125 12.875C5.320313 9.1875 8.292969 6.261719 12 5.8125Z" />
</svg>
