<svg xmlns="http://www.w3.org/2000/svg" xmlns:xlink="http://www.w3.org/1999/xlink" viewBox="0 0 26 26" fill="#36509b">
  <path d="M13 0C7.414063 0 2.246094 3.476563 3.21875 11.75C3.046875 11.886719 2.878906 12.035156 2.75 12.21875C2.246094 12.929688 2 13.851563 2 14.84375C2 16.089844 2.734375 17.046875 3.5 17.75C4.0625 18.265625 4.632813 18.625 5.28125 18.8125C5.839844 20.628906 6.933594 22.070313 8.1875 23.03125C8.628906 23.367188 9.257813 23.285156 9.59375 22.84375C9.929688 22.402344 9.847656 21.773438 9.40625 21.4375C8.28125 20.574219 7.304688 19.375 6.96875 17.78125C6.867188 17.328125 6.464844 17.003906 6 17C6.125 17 5.355469 16.75 4.84375 16.28125C4.332031 15.8125 4 15.226563 4 14.84375C4 14.378906 4.113281 13.992188 4.25 13.6875C4.527344 14.003906 4.972656 14.109375 5.367188 13.957031C5.757813 13.804688 6.011719 13.421875 6 13L6 12.15625C6 12.125 6 12.09375 6 12.0625C6.039063 11.347656 6.132813 10.695313 6.28125 10.09375C7.660156 9.621094 8.808594 10.390625 10 6.875C11.574219 11.523438 16.257813 8.492188 19.75 10.21875C19.882813 10.789063 19.960938 11.394531 20 12.0625C20 12.09375 20 12.125 20 12.15625L20 13C20 13.550781 20.449219 14 21 14L21 16.46875C20.566406 16.808594 20.085938 17 20 17C19.535156 17.003906 19.132813 17.328125 19.03125 17.78125C18.8125 18.8125 18.335938 19.6875 17.71875 20.40625C17.414063 20.660156 17.289063 21.074219 17.402344 21.453125C17.511719 21.835938 17.839844 22.113281 18.234375 22.164063C18.628906 22.214844 19.015625 22.027344 19.21875 21.6875C19.894531 20.902344 20.410156 19.925781 20.75 18.8125C21.320313 18.652344 21.839844 18.386719 22.3125 18L22.46875 18C22.25 18.84375 21.898438 19.71875 21.53125 20.46875C21 21.546875 20.574219 22.1875 20.46875 22.34375C20.390625 22.382813 20.148438 22.515625 19.34375 22.71875C18.722656 22.878906 17.859375 23.039063 16.75 23.125C16.523438 21.945313 15.269531 21.03125 13.71875 21.03125C12.007813 21.03125 10.625 22.140625 10.625 23.5C10.625 24.859375 12.007813 25.96875 13.71875 25.96875C14.835938 25.96875 15.800781 25.488281 16.34375 24.78125C17.804688 24.699219 18.9375 24.488281 19.75 24.28125C20.796875 24.015625 21.375 23.71875 21.375 23.71875C21.492188 23.648438 21.585938 23.554688 21.65625 23.4375C21.65625 23.4375 22.324219 22.5 22.96875 21.1875C23.457031 20.195313 23.941406 18.996094 24.15625 17.75C25.207031 17.292969 25.90625 16.242188 25.90625 15L25.90625 13C25.90625 11.34375 24.65625 10 23 10L22.84375 10C22.847656 3.003906 18.175781 0 13 0 Z M 9 12C7.894531 12 7 12.894531 7 14C7 15.105469 7.894531 16 9 16C10.105469 16 11 15.105469 11 14C11 12.894531 10.105469 12 9 12 Z M 17 12C15.894531 12 15 12.894531 15 14C15 15.105469 15.894531 16 17 16C18.105469 16 19 15.105469 19 14C19 12.894531 18.105469 12 17 12Z" fill="#36509b" />
</svg>
