<svg xmlns="http://www.w3.org/2000/svg" xmlns:xlink="http://www.w3.org/1999/xlink" viewBox="0 0 26 26" fill="#36509b">
  <path d="M7.5 0C6.101563 0 4.789063 0.398438 3.6875 1C4.085938 1 4.394531 1.207031 4.59375 1.40625C4.792969 1.605469 4.898438 1.886719 5 2.1875C5.800781 1.789063 6.601563 1.59375 7.5 1.59375C10.699219 1.59375 13.40625 4.199219 13.40625 7.5C13.40625 10.699219 10.800781 13.40625 7.5 13.40625C4.300781 13.40625 1.59375 10.800781 1.59375 7.5C1.628906 7.492188 1.652344 7.511719 1.6875 7.5C1.6875 5.699219 2.5 5 2.5 5L3.3125 5.6875C3.414063 5.789063 3.492188 5.8125 3.59375 5.8125C3.695313 5.8125 3.8125 5.695313 3.8125 5.59375C4.113281 4.195313 4 2.414063 4 2.3125C4 2.210938 3.90625 2.09375 3.90625 2.09375C3.804688 1.992188 3.789063 2 3.6875 2C3.585938 2 1.914063 1.886719 0.3125 2.1875C0.210938 2.1875 0.09375 2.304688 0.09375 2.40625C0.09375 2.507813 0.0859375 2.6875 0.1875 2.6875L1.09375 3.5C1.09375 3.5 0.824219 3.914063 0.5625 4.65625C0.542969 4.699219 0.519531 4.738281 0.5 4.78125C0.460938 4.894531 0.441406 5 0.40625 5.125C0.152344 5.859375 0 6.65625 0 7.5C0 11.601563 3.398438 15 7.5 15C11.601563 15 15 11.601563 15 7.5C15 3.398438 11.601563 0 7.5 0 Z M 20 2C19.398438 2 19 2.398438 19 3L19 6C19 6.601563 19.398438 7 20 7C20.601563 7 21 6.601563 21 6L21 3C21 2.398438 20.601563 2 20 2 Z M 10.3125 4C10.210938 4.011719 10.144531 4.042969 10.09375 4.09375L7.59375 6.4375C7.226563 6.371094 6.847656 6.433594 6.59375 6.6875C6.195313 7.085938 6.195313 7.8125 6.59375 8.3125C6.648438 8.367188 6.714844 8.398438 6.78125 8.4375L7 10.90625C7 11.105469 7.101563 11.3125 7.5 11.3125C7.800781 11.3125 8 11.007813 8 10.90625L8.15625 8.34375C8.167969 8.335938 8.175781 8.320313 8.1875 8.3125C8.441406 7.996094 8.535156 7.601563 8.46875 7.25L10.6875 4.6875C10.789063 4.585938 10.886719 4.292969 10.6875 4.09375C10.539063 3.992188 10.414063 3.988281 10.3125 4 Z M 15.1875 4C15.6875 5.101563 16 6.300781 16 7.5C16 8.398438 15.894531 9.199219 15.59375 10L24 10L24 23C24 23.601563 23.601563 24 23 24L5 24C4.398438 24 4 23.601563 4 23L4 15.1875C3.300781 14.886719 2.601563 14.40625 2 13.90625L2 22.90625C2 24.605469 3.300781 25.90625 5 25.90625L23 25.90625C24.699219 25.90625 26 24.605469 26 22.90625L26 7C26 5.300781 24.699219 4 23 4L22 4L22 6C22 7.101563 21.101563 8 20 8C18.898438 8 18 7.101563 18 6L18 4 Z M 15 12L15 14L17 14L17 12 Z M 19 12L19 14L21 14L21 12 Z M 7 16L7 18L9 18L9 16 Z M 11 16L11 18L13 18L13 16 Z M 15 16L15 18L17 18L17 16 Z M 19 16L19 18L21 18L21 16 Z M 7 20L7 22L9 22L9 20 Z M 11 20L11 22L13 22L13 20 Z M 15 20L15 22L17 22L17 20 Z M 19 20L19 22L21 22L21 20Z" fill="#36509b" />
</svg>
